<?xml version="1.0" encoding="UTF-8" ?>
<!DOCTYPE svg PUBLIC "-//W3C//DTD SVG 1.1//EN" "http://www.w3.org/Graphics/SVG/1.1/DTD/svg11.dtd">
<svg width="993pt" height="251pt" viewBox="0 0 993 251" version="1.1" xmlns="http://www.w3.org/2000/svg">
<g id="#1214f9ff">
<path fill="#1214f9" opacity="1.00" d=" M 919.18 3.06 C 940.35 24.88 961.66 46.55 983.07 68.15 C 973.76 83.72 963.83 98.91 954.33 114.37 C 952.24 117.92 949.67 121.21 947.98 124.98 C 948.17 126.24 949.38 126.95 950.17 127.86 C 961.79 138.66 973.16 149.75 984.51 160.83 C 962.83 189.31 940.74 217.47 919.16 246.02 C 919.02 219.87 919.47 193.71 918.93 167.57 C 916.87 170.22 915.83 173.44 914.41 176.43 C 907.60 191.27 900.99 206.21 894.03 220.98 C 890.14 217.21 886.27 213.43 882.38 209.66 C 892.56 187.15 902.95 164.74 913.04 142.19 C 894.35 141.99 875.66 142.22 856.97 142.07 C 869.61 112.34 882.84 82.85 895.42 53.09 C 899.75 56.34 903.51 60.26 907.53 63.88 C 899.20 83.32 890.48 102.61 882.36 122.13 C 894.63 122.22 906.90 122.15 919.18 122.16 C 919.15 82.46 919.16 42.76 919.18 3.06 M 932.95 49.43 C 932.77 70.08 932.68 90.74 932.99 111.38 C 936.05 108.13 937.86 103.98 940.37 100.32 C 945.91 91.29 951.85 82.50 957.05 73.26 C 948.79 65.55 941.36 56.97 932.95 49.43 M 932.96 143.32 C 932.76 160.00 932.68 176.71 933.00 193.39 C 935.70 190.91 937.71 187.82 939.97 184.95 C 945.16 178.21 950.36 171.46 955.62 164.77 C 948.20 157.49 940.99 149.94 932.96 143.32 Z" />
</g>
<g id="#010101ff">
<path fill="#010101" opacity="1.00" d=" M 31.18 68.27 C 32.00 66.88 32.68 64.30 34.81 65.19 C 38.48 67.16 41.38 70.31 44.49 73.05 C 38.81 86.60 31.70 99.54 25.84 113.03 C 40.06 113.28 54.28 113.06 68.51 113.13 C 68.20 114.54 67.88 115.97 67.23 117.28 C 56.75 137.53 46.58 157.95 36.27 178.28 C 35.25 179.96 34.60 182.97 32.02 182.37 C 28.34 180.22 25.43 177.00 22.37 174.07 C 29.60 158.67 38.03 143.83 45.10 128.35 C 31.01 128.20 16.92 128.61 2.85 128.15 C 5.62 120.78 9.63 113.95 12.77 106.73 C 18.95 93.93 25.02 81.08 31.18 68.27 Z" />
<path fill="#010101" opacity="1.00" d=" M 453.40 69.43 C 454.31 67.89 456.82 67.56 457.95 69.05 C 468.00 80.67 477.94 92.40 488.06 103.97 C 488.84 105.00 490.29 106.45 489.13 107.77 C 486.93 111.13 485.01 114.84 481.94 117.48 C 478.77 117.16 477.40 113.69 475.30 111.71 C 470.95 107.13 467.55 101.53 462.41 97.79 C 462.20 125.27 462.51 152.76 462.25 180.25 C 458.02 180.41 453.79 180.39 449.56 180.26 C 449.31 152.80 449.48 125.33 449.48 97.87 C 446.89 99.03 445.38 101.52 443.56 103.55 C 440.28 107.28 437.10 111.10 433.83 114.85 C 432.56 116.08 431.23 118.18 429.20 117.17 C 426.61 113.72 423.45 110.28 422.16 106.15 C 432.25 93.66 443.10 81.76 453.40 69.43 Z" />
<path fill="#010101" opacity="1.00" d=" M 76.14 97.93 C 81.78 97.79 87.41 97.77 93.04 97.96 C 93.33 118.24 93.02 138.52 93.20 158.80 C 97.81 158.88 102.43 158.87 107.05 158.84 C 107.26 138.54 107.07 118.23 107.14 97.92 C 112.77 97.80 118.41 97.76 124.05 97.97 C 124.33 118.24 124.02 138.52 124.20 158.80 C 128.81 158.88 133.43 158.87 138.05 158.84 C 138.26 138.54 138.06 118.24 138.14 97.94 C 143.78 97.79 149.42 97.78 155.06 97.94 C 155.23 125.24 155.22 152.55 155.06 179.85 C 128.75 179.89 102.43 179.83 76.11 179.88 C 76.17 152.57 76.11 125.25 76.14 97.93 Z" />
<path fill="#010101" opacity="1.00" d=" M 163.14 97.92 C 189.44 97.81 215.76 97.76 242.07 97.95 C 242.22 104.92 242.21 111.89 242.07 118.86 C 215.75 118.88 189.43 118.83 163.11 118.89 C 163.15 111.90 163.11 104.91 163.14 97.92 Z" />
<path fill="#010101" opacity="1.00" d=" M 249.88 97.97 C 257.54 97.77 265.22 97.75 272.88 97.98 C 278.73 105.80 283.74 114.21 289.71 121.94 C 295.19 113.96 300.52 105.88 306.12 97.99 C 313.81 97.76 321.51 97.71 329.20 98.03 C 328.14 100.00 326.99 101.92 325.72 103.76 C 317.18 115.93 309.15 128.44 300.60 140.60 C 299.55 142.26 298.10 143.91 298.19 146.00 C 298.02 157.28 298.31 168.57 298.07 179.86 C 292.42 179.89 286.76 179.85 281.11 179.89 C 281.14 168.91 281.14 157.92 281.14 146.94 C 281.27 142.96 277.97 140.14 276.09 136.95 C 267.44 123.89 258.29 111.17 249.88 97.97 Z" />
<path fill="#010101" opacity="1.00" d=" M 337.14 97.94 C 356.77 97.71 376.40 97.96 396.03 97.81 C 397.95 97.99 400.53 97.36 401.74 99.33 C 406.11 104.92 410.36 110.61 414.69 116.23 C 416.57 118.38 416.09 121.38 416.19 124.00 C 416.04 142.62 416.30 161.24 416.06 179.86 C 410.41 179.89 404.76 179.86 399.11 179.89 C 399.18 164.24 399.08 148.60 399.17 132.95 C 399.20 130.95 399.17 128.80 397.71 127.24 C 395.44 124.53 393.75 121.14 390.89 119.04 C 378.66 118.67 366.39 118.87 354.15 118.96 C 354.10 139.26 354.26 159.56 354.07 179.86 C 348.42 179.89 342.76 179.85 337.11 179.89 C 337.17 152.57 337.11 125.25 337.14 97.94 Z" />
<path fill="#010101" opacity="1.00" d=" M 497.14 97.94 C 523.44 97.79 549.75 97.77 576.05 97.95 C 576.22 125.25 576.21 152.56 576.06 179.86 C 549.74 179.89 523.42 179.83 497.11 179.89 C 497.17 152.58 497.11 125.26 497.14 97.94 M 514.15 118.96 C 514.18 132.24 514.09 145.52 514.20 158.81 C 529.15 158.90 544.10 158.82 559.05 158.85 C 559.22 145.54 559.14 132.22 559.09 118.91 C 544.11 118.86 529.13 118.77 514.15 118.96 Z" />
<path fill="#010101" opacity="1.00" d=" M 584.14 97.94 C 610.44 97.80 636.74 97.76 663.04 97.96 C 663.24 125.25 663.20 152.56 663.06 179.85 C 636.75 179.90 610.43 179.83 584.12 179.89 C 584.16 152.57 584.11 125.25 584.14 97.94 M 601.15 118.96 C 601.17 132.24 601.10 145.52 601.19 158.80 C 616.14 158.91 631.10 158.81 646.05 158.85 C 646.23 145.54 646.15 132.22 646.10 118.91 C 631.11 118.86 616.13 118.77 601.15 118.96 Z" />
<path fill="#010101" opacity="1.00" d=" M 670.14 97.94 C 696.44 97.80 722.74 97.76 749.04 97.96 C 749.24 104.92 749.20 111.90 749.07 118.87 C 738.76 118.94 728.45 118.73 718.15 118.96 C 718.10 139.26 718.26 159.56 718.07 179.86 C 712.42 179.89 706.76 179.86 701.11 179.89 C 701.13 159.56 701.19 139.24 701.09 118.91 C 690.76 118.81 680.44 118.88 670.11 118.89 C 670.17 111.91 670.11 104.92 670.14 97.94 Z" />
<path fill="#010101" opacity="1.00" d=" M 757.14 97.93 C 762.78 97.79 768.42 97.78 774.06 97.94 C 774.33 108.15 773.96 118.36 774.25 128.57 C 789.11 128.36 803.99 128.36 818.86 128.57 C 819.49 118.37 818.95 108.14 819.14 97.93 C 824.77 97.79 830.40 97.77 836.04 97.96 C 836.25 125.25 836.19 152.56 836.06 179.86 C 830.41 179.90 824.76 179.85 819.11 179.89 C 819.03 169.69 819.39 159.48 818.93 149.29 C 804.02 149.39 789.12 149.37 774.21 149.30 C 774.01 159.49 774.31 169.67 774.07 179.86 C 768.41 179.88 762.76 179.86 757.12 179.89 C 757.16 152.57 757.11 125.25 757.14 97.93 Z" />
<path fill="#010101" opacity="1.00" d=" M 163.10 128.61 C 189.43 128.31 215.77 128.37 242.10 128.58 C 242.17 135.46 242.24 142.34 242.05 149.22 C 215.75 149.43 189.43 149.43 163.13 149.22 C 163.12 142.35 163.16 135.48 163.10 128.61 Z" />
<path fill="#010101" opacity="1.00" d=" M 163.14 158.94 C 189.44 158.79 215.75 158.78 242.06 158.95 C 242.22 165.92 242.20 172.89 242.07 179.86 C 215.75 179.89 189.43 179.83 163.11 179.89 C 163.15 172.91 163.11 165.92 163.14 158.94 Z" />
</g>
</svg>
